<svg id="Layer_1" data-name="Layer 1" xmlns="http://www.w3.org/2000/svg" viewBox="0 0 2122 2122"><defs><style>.cls-1{fill:#fff;}.cls-2{fill:#e8ae38;}</style></defs><path class="cls-1" d="M440.51,1265.07v-231.3h-3.84l-88,211.4H300.53l-88.2-211.4h-3.84v231.3H141.38V919.2h85.33l95.63,232.5h4.32l95.87-232.5h85.09v345.87Z"/><path class="cls-1" d="M778,1189.81c-10.55,49.85-56.09,81-120.8,81-80.54,0-128-50.81-128-136.62,0-86,48.41-139.26,127-139.26,77.9,0,123.92,49.62,123.92,133.51v21.33H598.69v3.6c.95,39.3,24,63.75,60.4,63.75,27.56,0,46.5-9.83,53.93-27.32Zm-179-84.61H711.58c-1.44-35-22.53-56.81-55.13-56.81C624.09,1048.39,601.32,1070.92,598.93,1105.2Z"/><path class="cls-1" d="M806.86,1000.7h67.59v42.42h4.31c12.23-29.72,39.07-48.18,78.14-48.18,58.72,0,90.36,36,90.36,99.23v170.9H977.51V1110.71c0-36.43-15.58-55.61-48.65-55.61-32.36,0-52.25,22.77-52.25,57.53v152.44H806.86Z"/><path class="cls-1" d="M1315.6,1265.07H1248v-42.43h-4.31c-12.46,30.68-37.15,48.18-77.18,48.18-57,0-92.52-36.43-92.52-97.79V1000.7h69.75v154.35c0,36.44,16.54,55.13,48.66,55.13,34.75,0,53.45-21.81,53.45-57V1000.7h69.75Z"/><path class="cls-2" d="M1430.47,1330.07c33.74,35.7,72.17,62,113.76,79.56a337.34,337.34,0,0,0,260.5,0c41.6-17.51,80-43.86,113.76-79.56l0,0a3.62,3.62,0,0,1,6,3.68c-16.8,48-53.68,89.21-98.53,116.71-45,27.7-98.45,42-151.56,42.06s-106.54-14.36-151.55-42.06c-44.85-27.5-81.74-68.72-98.53-116.71a3.62,3.62,0,0,1,6-3.69Z"/><path class="cls-2" d="M1385.6,1351.78c-1-8.72,1.28-16.86,5.52-24.32a46.22,46.22,0,0,1,18.66-17.94c7.83-4,16.6-6.23,25-5.74,4.21-.11,8.23,1.15,12.17,1.89a57.11,57.11,0,0,1,11,4.93,3.79,3.79,0,0,1,1.31,5.19,3.75,3.75,0,0,1-2,1.62l-.51.19a95.47,95.47,0,0,1-10.49,2.69c-3.26,1.07-6.51,1.51-9.44,2.65a81.1,81.1,0,0,0-16.18,6.62,76.88,76.88,0,0,0-14,9.93c-4.62,3.91-9.11,8.85-14.13,14l-.53.53a3.72,3.72,0,0,1-6.36-2.2Z"/><path class="cls-2" d="M1956.11,1353.45c-5-5.11-9.51-10-14.13-14a76.88,76.88,0,0,0-14-9.93,81.1,81.1,0,0,0-16.18-6.62c-2.93-1.14-6.18-1.58-9.44-2.65a95.47,95.47,0,0,1-10.49-2.69l-.51-.19a3.79,3.79,0,0,1-.66-6.81,57.11,57.11,0,0,1,11-4.93c3.94-.74,8-2,12.16-1.89,8.37-.49,17.14,1.74,25,5.74a46.28,46.28,0,0,1,18.66,17.94c4.24,7.46,6.48,15.6,5.52,24.32a3.72,3.72,0,0,1-4.11,3.29,3.67,3.67,0,0,1-2.25-1.09Z"/><path class="cls-2" d="M1514.19,1271.06c-109.78,0-174.73-64.47-174.73-179.28,0-113.37,65-178.57,171.61-178.57,86.77,0,151.48,51,159.15,122h-99.94c-6.72-25.41-29.49-41.94-58.73-41.94-43.14,0-68.55,35.47-68.55,97.07,0,63,29,100.67,73.59,100.67,33.07,0,56.56-18.46,59.44-46.26l.48-4.8h-52.73v-67.59H1674.3v45.54C1674.3,1212.58,1614.62,1271.06,1514.19,1271.06Z"/><path class="cls-2" d="M1702.34,1132.52c0-87,54.17-138.77,139-138.77,85.33,0,139.26,51.29,139.26,138.77,0,89.65-52.73,139.26-139.26,139.26C1755.08,1271.78,1702.34,1221.92,1702.34,1132.52Zm178.57.24c0-43.14-15.34-68.79-39.55-68.79-24,0-39.31,25.65-39.31,68.79,0,44.34,14.62,68.79,39.31,68.79C1865.81,1201.55,1880.91,1177.1,1880.91,1132.76Z"/></svg>